<?xml version="1.0"?>
<svg xmlns="http://www.w3.org/2000/svg" viewBox="0 0 50 50">
    <path style="line-height:normal;text-indent:0;text-align:start;text-decoration-line:none;text-decoration-style:solid;text-decoration-color:#000;text-transform:none;block-progression:tb;isolation:auto;mix-blend-mode:normal" d="M 30 9 L 30 11 L 7.1269531 11 C 5.3326454 11 3.745432 12.202098 3.2695312 13.935547 C 2.680163 16.075006 2 19.69751 2 25 C 2 30.30249 2.6801629 33.924994 3.2695312 36.064453 C 3.7454321 37.797902 5.3326454 39 7.1269531 39 L 30 39 L 30 41 L 32 41 L 32 39 L 41.152344 39 C 43.994993 39 46.449441 36.992612 47.029297 34.212891 C 47.523065 31.846279 48 28.627947 48 25 C 48 21.372053 47.521969 18.153366 47.029297 15.787109 C 46.449385 13.007119 43.994993 11 41.152344 11 L 32 11 L 32 9 L 30 9 z M 12 13 L 30 13 L 25 17 L 17 17 L 12 13 z M 43 14 L 43.789062 14 C 44.423125 14.557928 44.888058 15.312254 45.072266 16.195312 C 45.299427 17.286347 45.520602 18.577347 45.691406 20 L 43 20 L 43 14 z M 9 16 L 13 20 L 13 30 L 9 34 C 9 34 8 30.930094 8 24.996094 C 8 19.062094 9 16 9 16 z M 33 16 C 33 16 35 19.955 35 25 C 35 30.045 33 34 33 34 L 29 30 L 29 20 L 33 16 z M 43 30 L 45.691406 30 C 45.520233 31.422701 45.297911 32.713819 45.070312 33.804688 C 44.886078 34.687873 44.420706 35.4421 43.787109 36 L 43 36 L 43 30 z M 17 33 L 25 33 L 30 37 L 12 37 L 17 33 z" font-weight="400" font-family="sans-serif" white-space="normal" overflow="visible"/>
</svg>
